# xmcd
#
# Track frame offsets:
#	150
#	18786
#	34368
#	68764
#	109551
#	151523
#	177265
#	201524
#	220109
#	243318
#	263394
#	294651
#	324288
#
# Disc length: 4478 seconds
#
# Revision: 1
# Processed by: cddbd v1.5PL3 Copyright (c) Steve Scherf et al.
# Submitted via: EasyCDDAExtractor 7.0.5.1
#
DISCID=a8117c0d
DTITLE=Various Artist - Smokin JointB
DYEAR=2001
DGENRE=Blues
TTITLE0=Kim Wilson - Ain't Gonna Do It
TTITLE1=Good Time Charlie
TTITLE2=Oh Baby
TTITLE3=Early In The Morning
TTITLE4=Got to Let You Go
TTITLE5=Learn to Treat Me Right
TTITLE6=Smokin' Joint
TTITLE7=I Stay in The Mood
TTITLE8=Telephone Blues
TTITLE9=High and Lonesome
TTITLE10=I Can Tell
TTITLE11=Tomorrow Night
TTITLE12=The Lighthouse Is Gone
EXTD=
EXTT0=
EXTT1=
EXTT2=
EXTT3=
EXTT4=
EXTT5=
EXTT6=
EXTT7=
EXTT8=
EXTT9=
EXTT10=
EXTT11=
EXTT12=
PLAYORDER=
